# xmcd
#
# Track frame offsets: 
#        150
#        17506
#        30862
#        47582
#        61456
#        81312
#        98965
#        114799
#        133170
#        143322
#        161216
#        176076
#
# Disc length: 2581 seconds
#
# Revision: 3
# Processed by: cddbd v1.5.2PL0 Copyright (c) Steve Scherf et al.
# Submitted via: ExactAudioCopy v0.99pb4
#
DISCID=920a130c
DTITLE=Old 97's - Wreck Your Life
DYEAR=1995
DGENRE=Country
TTITLE0=Victoria
TTITLE1=The Other Shoe
TTITLE2=Doreen
TTITLE3=You Belong To My Heart
TTITLE4=Big Brown Eyes
TTITLE5=Dressing Room Walls
TTITLE6=W-I-F-E
TTITLE7=Bel Air
TTITLE8=My Sweet Blue-Eyed Darlin'
TTITLE9=Old Familiar Steam
TTITLE10=Over The Cliff
TTITLE11=Goin', Goin', Gone
EXTD=
EXTT0=
EXTT1=
EXTT2=
EXTT3=
EXTT4=
EXTT5=
EXTT6=
EXTT7=
EXTT8=
EXTT9=
EXTT10=
EXTT11=
PLAYORDER=
